<svg width="51" height="51" viewBox="0 0 51 51" fill="none" xmlns="http://www.w3.org/2000/svg">
<path d="M12.5907 41.5168C7.17197 38.0105 5.02041 24.384 6.77354 18.248C8.04854 13.6262 12.9892 6.85272 17.4517 5.0996C21.197 3.58553 29.8032 3.58553 33.4689 5.0996C37.9314 6.85272 42.872 13.6262 44.147 18.248C45.9001 24.4637 44.5454 38.0105 39.2064 41.5168C27.8907 48.848 23.9064 48.848 12.5907 41.5168Z" fill="#F5D1AC"/>
<path d="M4.0641 19.6828C6.93284 25.9781 7.65003 26.2172 10.3594 18.7266C11.7938 14.7422 10.7578 12.3516 12.511 9.80156C13.4672 8.36719 15.6188 5.97656 15.6188 5.97656C15.6188 5.97656 -1.35465 7.72969 4.0641 19.6828Z" fill="#423223"/>
<path d="M11.3157 5.73784C7.01261 8.5269 -2.15146 7.41128 3.2673 19.2847C6.13605 25.58 6.85323 25.8191 9.56261 18.3285C10.997 14.3441 9.96105 11.9535 11.7142 9.40346C12.6704 7.96909 15.6189 5.9769 15.6189 5.9769C15.6189 5.9769 14.2642 3.82534 11.3157 5.73784Z" fill="#947151"/>
<path d="M46.936 19.6035C44.0673 25.8988 43.3501 26.1379 40.6407 18.6473C39.2063 14.6629 40.2423 12.2723 38.4892 9.72228C37.5329 8.2879 35.3813 5.89728 35.3813 5.89728C35.3813 5.89728 52.3548 7.73009 46.936 19.6035Z" fill="#423223"/>
<path d="M39.6845 5.73784C43.9876 8.5269 53.1517 7.41128 47.7329 19.2847C44.8642 25.58 44.147 25.8191 41.4376 18.3285C40.0032 14.3441 41.0392 11.9535 39.286 9.40346C38.3298 7.96909 35.3813 5.9769 35.3813 5.9769C35.3813 5.9769 36.736 3.82534 39.6845 5.73784Z" fill="#947151"/>
<path d="M14.1045 29.2452C16.7451 29.2452 18.8857 27.1046 18.8857 24.464C18.8857 21.8234 16.7451 19.6827 14.1045 19.6827C11.4639 19.6827 9.32324 21.8234 9.32324 24.464C9.32324 27.1046 11.4639 29.2452 14.1045 29.2452Z" fill="white"/>
<path d="M12.9092 28.0499C14.8896 28.0499 16.4951 26.4445 16.4951 24.464C16.4951 22.4835 14.8896 20.8781 12.9092 20.8781C10.9287 20.8781 9.32324 22.4835 9.32324 24.464C9.32324 26.4445 10.9287 28.0499 12.9092 28.0499Z" fill="#3E4347"/>
<path d="M36.8955 29.2452C39.5361 29.2452 41.6768 27.1046 41.6768 24.464C41.6768 21.8234 39.5361 19.6827 36.8955 19.6827C34.2549 19.6827 32.1143 21.8234 32.1143 24.464C32.1143 27.1046 34.2549 29.2452 36.8955 29.2452Z" fill="white"/>
<path d="M38.0908 28.0499C40.0713 28.0499 41.6768 26.4445 41.6768 24.464C41.6768 22.4835 40.0713 20.8781 38.0908 20.8781C36.1104 20.8781 34.5049 22.4835 34.5049 24.464C34.5049 26.4445 36.1104 28.0499 38.0908 28.0499Z" fill="#3E4347"/>
<path d="M17.292 38.8876L20.9576 42.7923C23.1889 45.1032 27.7311 45.1032 29.9623 42.7923L33.7076 38.8876L29.8826 34.9032H21.117L17.292 38.8876Z" fill="#7D644B"/>
<path d="M25.5003 31.5558C25.5003 31.5558 21.5957 37.1339 22.0738 39.7636C22.7113 43.5886 28.2097 43.5886 28.9269 39.7636C29.405 37.1339 25.5003 31.5558 25.5003 31.5558Z" fill="#F15A61"/>
<path d="M25.5001 41.1984L26.3767 35.8594H24.6235L25.5001 41.1984Z" fill="#BA454B"/>
<path d="M21.5156 33.0703H29.4844V36.7359H21.5156V33.0703Z" fill="#423223"/>
<path d="M38.0904 33.9465L32.4326 27.97C29.0061 24.384 21.9936 24.384 18.567 27.97L12.9092 33.9465C11.3154 35.62 11.3154 38.409 12.9092 40.0825C14.5029 41.7559 17.1326 41.7559 18.7264 40.0825L24.3842 34.1059C24.942 33.5481 25.9779 33.5481 26.5357 34.1059L32.1936 40.0825C33.7873 41.7559 36.417 41.7559 38.0107 40.0825C39.7639 38.409 39.7639 35.62 38.0904 33.9465Z" fill="#947151"/>
<path d="M20.7983 28.448C20.7983 26.3762 22.8702 25.9777 25.4999 25.9777C28.1296 25.9777 30.2015 26.3762 30.2015 28.448C30.2015 30.1215 26.4561 31.5558 25.4999 31.5558C24.5436 31.5558 20.7983 30.0418 20.7983 28.448Z" fill="#3E4347"/>
<path d="M18.5747 31.0874L19.3628 30.2969L20.1525 31.085L19.3644 31.8747L18.5747 31.0874Z" fill="#3E4347"/>
<path d="M16.6919 33.318L17.48 32.5283L18.2689 33.3164L17.4816 34.1053L16.6919 33.318Z" fill="#3E4347"/>
<path d="M19.2246 34.0762L20.0127 33.2865L20.8024 34.0738L20.0151 34.8643L19.2246 34.0762Z" fill="#3E4347"/>
<path d="M30.8413 31.0686L31.6318 30.2812L32.4191 31.071L31.6294 31.8591L30.8413 31.0686Z" fill="#3E4347"/>
<path d="M32.7734 33.2785L33.5639 32.4904L34.3512 33.2801L33.5615 34.0682L32.7734 33.2785Z" fill="#3E4347"/>
<path d="M30.2388 34.1146L31.0285 33.3273L31.8166 34.1162L31.0269 34.9051L30.2388 34.1146Z" fill="#3E4347"/>
</svg>
