<!DOCTYPE svg PUBLIC "-//W3C//DTD SVG 20010904//EN" "http://www.w3.org/TR/2001/REC-SVG-20010904/DTD/svg10.dtd">
<svg version="1.0" xmlns="http://www.w3.org/2000/svg" width="500px" height="500px" viewBox="0 0 5000 5000" preserveAspectRatio="xMidYMid meet">
<g id="layer101" fill="#343434" fill-rule="evenodd">
<path d="M0 2500 L0 0 2500 0 L5000 0 5000 2500 L5000 5000 2500 5000 L0 5000 0 2500 M3167 3043 C3160 3040,3142 3025,3127 3011 L3100 2986 3100 2552 C3100 2274,3103 2111,3110 2099 C3134 2053,3160 2050,3474 2050 C3637 2050,3770 2046,3770 2042 C3770 2038,3725 1989,3670 1935 C3615 1880,3570 1829,3570 1822 C3570 1815,3577 1806,3585 1803 C3597 1798,3635 1831,3715 1910 L3830 2024 4004 1850 C4128 1727,4182 1678,4194 1683 C4202 1686,4210 1695,4210 1702 C4210 1709,4138 1787,4050 1875 C3962 1962,3890 2038,3890 2042 C3890 2046,4065 2050,4281 2050 L4672 2050 4706 2084 L4740 2118 4740 2538 C4740 2787,4736 2969,4730 2984 C4724 2998,4706 3018,4690 3029 C4660 3049,4643 3050,3920 3050 C3513 3050,3174 3047,3167 3043 M3265 2914 C3212 2882,3210 2865,3210 2541 C3210 2253,3210 2241,3230 2216 C3275 2159,3267 2159,3787 2160 C4243 2160,4266 2160,4297 2179 C4358 2216,4360 2228,4360 2550 C4360 2870,4358 2879,4298 2913 C4273 2928,4215 2930,3780 2930 C3358 2930,3286 2927,3265 2914 M3739 2861 C3668 2835,3619 2792,3585 2724 C3558 2674,3554 2653,3551 2570 C3548 2492,3552 2464,3569 2419 C3597 2344,3648 2287,3717 2253 C3766 2229,3787 2225,3855 2225 C3926 2225,3941 2228,3990 2256 C4020 2273,4046 2293,4047 2301 C4048 2308,4034 2332,4015 2354 L3982 2393 3947 2371 C3901 2343,3819 2342,3775 2369 C3681 2427,3663 2620,3743 2706 C3781 2747,3865 2769,3912 2751 C3937 2741,3940 2736,3940 2685 L3940 2631 3887 2628 L3835 2625 3835 2570 L3835 2515 3952 2512 L4070 2509 4069 2657 L4069 2805 4037 2827 C3956 2882,3833 2896,3739 2861 M4483 2689 C4443 2642,4475 2570,4536 2570 C4598 2570,4630 2634,4595 2687 C4574 2717,4507 2719,4483 2689 M4496 2517 C4455 2478,4453 2435,4492 2399 C4536 2358,4610 2393,4610 2455 C4610 2511,4534 2553,4496 2517 M1026 2846 C969 2823,935 2793,904 2738 C879 2692,875 2674,876 2610 C877 2454,966 2356,1105 2356 C1191 2356,1244 2389,1283 2465 C1302 2503,1314 2589,1306 2624 L1299 2650 1155 2650 L1011 2650 1021 2680 C1042 2741,1141 2770,1209 2735 C1241 2718,1245 2721,1274 2777 L1290 2810 1245 2830 C1186 2855,1071 2864,1026 2846 M1015 2530 C1024 2502,1062 2471,1095 2464 C1133 2456,1180 2490,1180 2525 C1180 2549,1178 2550,1095 2550 C1015 2550,1010 2548,1015 2530 M1452 2841 C1351 2774,1362 2639,1473 2585 C1502 2571,1554 2554,1588 2547 C1654 2535,1667 2518,1631 2486 C1607 2464,1551 2465,1496 2489 L1451 2508 1425 2462 C1396 2410,1395 2411,1475 2380 C1555 2350,1610 2345,1673 2364 C1777 2394,1799 2450,1799 2687 L1800 2850 1740 2850 C1687 2850,1680 2847,1680 2830 C1680 2807,1664 2795,1655 2809 C1651 2815,1630 2829,1609 2840 C1559 2865,1488 2865,1452 2841 M1535 2734 C1517 2715,1516 2705,1530 2678 C1543 2655,1597 2630,1634 2630 C1657 2630,1660 2633,1660 2669 C1660 2698,1653 2713,1635 2729 C1605 2753,1556 2756,1535 2734 M490 2590 L490 2330 405 2330 L320 2330 320 2270 L320 2210 565 2210 L810 2210 810 2270 L810 2330 725 2330 L640 2330 640 2590 L640 2850 565 2850 L490 2850 490 2590 M1920 2610 L1920 2370 1980 2370 C2038 2370,2040 2370,2046 2399 L2052 2428 2095 2395 C2171 2337,2265 2340,2314 2402 L2339 2434 2367 2407 C2451 2327,2566 2338,2617 2433 C2631 2459,2635 2499,2638 2657 L2641 2850 2572 2850 L2502 2850 2498 2681 C2495 2559,2490 2508,2481 2496 C2462 2473,2413 2475,2379 2500 L2350 2521 2350 2685 L2350 2850 2280 2850 L2210 2850 2210 2687 C2210 2556,2206 2520,2194 2502 C2175 2475,2139 2473,2099 2497 L2070 2514 2070 2682 L2070 2850 1995 2850 L1920 2850 1920 2610 M2740 2600 L2740 2550 2860 2550 L2980 2550 2980 2600 L2980 2650 2860 2650 L2740 2650 2740 2600 " />
</g>
<g id="layer102" fill="#f7a012" fill-rule="evenodd">
<path d="M3167 3043 C3160 3040,3142 3025,3127 3011 L3100 2986 3100 2552 C3100 2274,3103 2111,3110 2099 C3134 2053,3160 2050,3474 2050 C3637 2050,3770 2046,3770 2042 C3770 2038,3725 1989,3670 1935 C3615 1880,3570 1829,3570 1822 C3570 1815,3577 1806,3585 1803 C3597 1798,3635 1831,3715 1910 L3830 2024 4004 1850 C4128 1727,4182 1678,4194 1683 C4202 1686,4210 1695,4210 1702 C4210 1709,4138 1787,4050 1875 C3962 1962,3890 2038,3890 2042 C3890 2046,4065 2050,4281 2050 L4672 2050 4706 2084 L4740 2118 4740 2538 C4740 2787,4736 2969,4730 2984 C4724 2998,4706 3018,4690 3029 C4660 3049,4643 3050,3920 3050 C3513 3050,3174 3047,3167 3043 M3265 2914 C3212 2882,3210 2865,3210 2541 C3210 2253,3210 2241,3230 2216 C3275 2159,3267 2159,3787 2160 C4243 2160,4266 2160,4297 2179 C4358 2216,4360 2228,4360 2550 C4360 2870,4358 2879,4298 2913 C4273 2928,4215 2930,3780 2930 C3358 2930,3286 2927,3265 2914 M4483 2689 C4443 2642,4475 2570,4536 2570 C4598 2570,4630 2634,4595 2687 C4574 2717,4507 2719,4483 2689 M4496 2517 C4455 2478,4453 2435,4492 2399 C4536 2358,4610 2393,4610 2455 C4610 2511,4534 2553,4496 2517 " />
</g>
<g id="layer103" fill="#e5e5e5" fill-rule="evenodd">
<path d="M3739 2861 C3668 2835,3619 2792,3585 2724 C3558 2674,3554 2653,3551 2570 C3548 2492,3552 2464,3569 2419 C3597 2344,3648 2287,3717 2253 C3766 2229,3787 2225,3855 2225 C3926 2225,3941 2228,3990 2256 C4020 2273,4046 2293,4047 2301 C4048 2308,4034 2332,4015 2354 L3982 2393 3947 2371 C3901 2343,3819 2342,3775 2369 C3681 2427,3663 2620,3743 2706 C3781 2747,3865 2769,3912 2751 C3937 2741,3940 2736,3940 2685 L3940 2631 3887 2628 L3835 2625 3835 2570 L3835 2515 3952 2512 L4070 2509 4069 2657 L4069 2805 4037 2827 C3956 2882,3833 2896,3739 2861 " />
<path d="M1026 2846 C969 2823,935 2793,904 2738 C879 2692,875 2674,876 2610 C877 2454,966 2356,1105 2356 C1191 2356,1244 2389,1283 2465 C1302 2503,1314 2589,1306 2624 L1299 2650 1155 2650 L1011 2650 1021 2680 C1042 2741,1141 2770,1209 2735 C1241 2718,1245 2721,1274 2777 L1290 2810 1245 2830 C1186 2855,1071 2864,1026 2846 M1015 2530 C1024 2502,1062 2471,1095 2464 C1133 2456,1180 2490,1180 2525 C1180 2549,1178 2550,1095 2550 C1015 2550,1010 2548,1015 2530 " />
<path d="M1452 2841 C1351 2774,1362 2639,1473 2585 C1502 2571,1554 2554,1588 2547 C1654 2535,1667 2518,1631 2486 C1607 2464,1551 2465,1496 2489 L1451 2508 1425 2462 C1396 2410,1395 2411,1475 2380 C1555 2350,1610 2345,1673 2364 C1777 2394,1799 2450,1799 2687 L1800 2850 1740 2850 C1687 2850,1680 2847,1680 2830 C1680 2807,1664 2795,1655 2809 C1651 2815,1630 2829,1609 2840 C1559 2865,1488 2865,1452 2841 M1535 2734 C1517 2715,1516 2705,1530 2678 C1543 2655,1597 2630,1634 2630 C1657 2630,1660 2633,1660 2669 C1660 2698,1653 2713,1635 2729 C1605 2753,1556 2756,1535 2734 " />
<path d="M490 2590 L490 2330 405 2330 L320 2330 320 2270 L320 2210 565 2210 L810 2210 810 2270 L810 2330 725 2330 L640 2330 640 2590 L640 2850 565 2850 L490 2850 490 2590 " />
<path d="M1920 2610 L1920 2370 1980 2370 C2038 2370,2040 2370,2046 2399 L2052 2428 2095 2395 C2171 2337,2265 2340,2314 2402 L2339 2434 2367 2407 C2451 2327,2566 2338,2617 2433 C2631 2459,2635 2499,2638 2657 L2641 2850 2572 2850 L2502 2850 2498 2681 C2495 2559,2490 2508,2481 2496 C2462 2473,2413 2475,2379 2500 L2350 2521 2350 2685 L2350 2850 2280 2850 L2210 2850 2210 2687 C2210 2556,2206 2520,2194 2502 C2175 2475,2139 2473,2099 2497 L2070 2514 2070 2682 L2070 2850 1995 2850 L1920 2850 1920 2610 " />
<path d="M2740 2600 L2740 2550 2860 2550 L2980 2550 2980 2600 L2980 2650 2860 2650 L2740 2650 2740 2600 " />
</g>

</svg>